G04 GENERATED BY PULSONIX 11.0 GERBER.DLL 8468*
G04 #@! TF.GenerationSoftware,Pulsonix,Pulsonix,11.0.8468*
G04 #@! TF.CreationDate,2022-02-02T18:24:52+05:00*
G04 #@! TF.Part,Single*
%INCSPAM*%
%LNLAYER 3*%
%FSLAX35Y35*%
%LPD*%
%MOIN*%
G04 #@! TF.FileFunction,Copper,L3,Inr*
G04 #@! TF.FilePolarity,Positive*
G04 #@! TA.AperFunction,OtherCopper,Copper*
%ADD10C,0.01500*%
G04 #@! TA.AperFunction,ViaPad*
%ADD70C,0.02600X0.01000*%
G04 #@! TA.AperFunction,OtherCopper,Copper*
%ADD74C,0.01200*%
G04 #@! TA.AperFunction,ViaPad*
%ADD81C,0.04000X0.02800*%
G04 #@! TA.AperFunction,Conductor*
%ADD84C,0.05000*%
G04 #@! TA.AperFunction,ComponentPad*
%ADD94C,0.10000X0.06700*%
%ADD133C,0.06299X0.03937*%
%ADD134C,0.24409X0.10827*%
%ADD135C,0.06299X0.03150*%
%ADD136C,0.08000X0.04300*%
%ADD137C,0.06496X0.04724*%
%ADD138C,0.09843X0.05906*%
%ADD139C,0.11811X0.07874*%
G04 #@! TD.AperFunction*
X0Y0D02*
D02*
D10*
X274515Y47663D02*
X424999D01*
G75*
G02*
X444004Y66669I11576J7430D01*
G01*
Y271864D01*
G75*
G02*
X434544Y269835I-7430J11575D01*
G01*
Y233439D01*
G75*
G02*
X432244Y231139I-2300J0D01*
G01*
X258560D01*
Y225871D01*
G75*
G02*
X262165Y227142I3605J-4478D01*
G01*
G75*
G02*
X264796Y216279I0J-5750D01*
G01*
G75*
G02*
X262165Y205842I-2631J-4887D01*
G01*
G75*
G02*
X258560Y207173I1J5549D01*
G01*
Y193588D01*
G75*
G02*
X262165Y194859I3605J-4478D01*
G01*
G75*
G02*
X264796Y183996I0J-5750D01*
G01*
G75*
G02*
X262165Y173559I-2631J-4887D01*
G01*
G75*
G02*
X258560Y174889I-1J5549D01*
G01*
Y169598D01*
X271614D01*
G75*
G02*
X273914Y167298I0J-2300D01*
G01*
Y67691D01*
X273912Y67603D01*
G75*
G02*
X282638Y68180I4493J-1683D01*
G01*
G75*
G02*
X291668Y65920I4232J-2260D01*
G01*
G75*
G02*
X291024Y63519I-4799J0D01*
G01*
G75*
G02*
X289331Y54232I-1693J-4489D01*
G01*
G75*
G02*
X285176Y61431I0J4798D01*
G01*
G75*
G02*
X282638Y63659I1693J4488D01*
G01*
G75*
G02*
X280099Y61431I-4231J2261D01*
G01*
G75*
G02*
X275966Y54232I-4155J-2401D01*
G01*
G75*
G02*
X274515Y47663I-6124J-2092D01*
G01*
X288962Y77731D02*
G75*
G02*
X295433Y84202I6471J0D01*
G01*
G75*
G02*
X301904Y77731I0J-6471D01*
G01*
G75*
G02*
X295433Y71260I-6471J0D01*
G01*
G75*
G02*
X288962Y77731I0J6471D01*
G01*
X373976Y85401D02*
G75*
G02*
Y92501I0J3550D01*
G01*
G75*
G02*
Y85401I0J-3550D01*
G01*
X379423Y96384D02*
G75*
G02*
X386173Y103134I6750J0D01*
G01*
G75*
G02*
X392923Y96384I0J-6750D01*
G01*
G75*
G02*
X386173Y89634I-6750J0D01*
G01*
G75*
G02*
X379423Y96384I0J6750D01*
G01*
X405623D02*
G75*
G02*
X412173Y102934I6550J0D01*
G01*
G75*
G02*
X418723Y96384I0J-6550D01*
G01*
G75*
G02*
X412173Y89834I-6550J0D01*
G01*
G75*
G02*
X405623Y96384I0J6550D01*
G01*
X357047Y86101D02*
G75*
G02*
Y91801I0J2850D01*
G01*
G75*
G02*
Y86101I0J-2850D01*
G01*
X337756Y88549D02*
G75*
G02*
Y95649I0J3550D01*
G01*
G75*
G02*
Y88549I0J-3550D01*
G01*
X370041Y94063D02*
G75*
G02*
Y101163I0J3550D01*
G01*
G75*
G02*
Y94063I0J-3550D01*
G01*
X306654Y116110D02*
G75*
G02*
Y123210I0J3550D01*
G01*
G75*
G02*
Y116110I0J-3550D01*
G01*
X353583Y120441D02*
G75*
G02*
Y127541I0J3550D01*
G01*
G75*
G02*
Y120441I0J-3550D01*
G01*
X413583Y120834D02*
G75*
G02*
Y127934I0J3550D01*
G01*
G75*
G02*
Y120834I0J-3550D01*
G01*
X403583D02*
G75*
G02*
Y127934I0J3550D01*
G01*
G75*
G02*
Y120834I0J-3550D01*
G01*
X432638Y131464D02*
G75*
G02*
Y138564I0J3550D01*
G01*
G75*
G02*
Y131464I0J-3550D01*
G01*
X294867Y64936D02*
G75*
G02*
X302323Y72391I7456J0D01*
G01*
G75*
G02*
X309778Y64936I0J-7455D01*
G01*
G75*
G02*
X302323Y57480I-7455J0D01*
G01*
G75*
G02*
X294867Y64936I0J7456D01*
G01*
X392623Y74384D02*
G75*
G02*
X399173Y80934I6550J0D01*
G01*
G75*
G02*
X405723Y74384I0J-6550D01*
G01*
G75*
G02*
X399173Y67834I-6550J0D01*
G01*
G75*
G02*
X392623Y74384I0J6550D01*
G01*
X436575Y68848D02*
G36*
X436575Y68848D02*
G75*
G02*
X444004Y66669I0J-13754D01*
G01*
Y271864D01*
G75*
G02*
X436575Y269685I-7429J11575D01*
G01*
G75*
G02*
X434544Y269835I-5J13756D01*
G01*
Y233439D01*
G75*
G02*
X432638Y231173I-2300J0D01*
G01*
Y138564D01*
G75*
G02*
Y131464I0J-3550D01*
G01*
Y68272D01*
G75*
G02*
X436575Y68848I3939J-13179D01*
G01*
G37*
X412173Y47663D02*
G36*
X412173Y47663D02*
X424999D01*
G75*
G02*
X432638Y68272I11576J7429D01*
G01*
Y131464D01*
G75*
G02*
Y138564I0J3550D01*
G01*
Y231173D01*
G75*
G02*
X432244Y231139I-394J2268D01*
G01*
X412173D01*
Y127643D01*
G75*
G02*
X413583Y127934I1408J-3260D01*
G01*
G75*
G02*
Y120834I0J-3550D01*
G01*
G75*
G02*
X412173Y121126I0J3551D01*
G01*
Y102934D01*
G75*
G02*
X418723Y96384I0J-6550D01*
G01*
G75*
G02*
X412173Y89834I-6550J0D01*
G01*
Y47663D01*
G37*
X403583D02*
G36*
X403583Y47663D02*
X412173D01*
Y89834D01*
G75*
G02*
X405623Y96384I0J6550D01*
G01*
G75*
G02*
X412173Y102934I6550J0D01*
G01*
Y121126D01*
G75*
G02*
Y127643I1410J3259D01*
G01*
Y231139D01*
X403583D01*
Y127934D01*
G75*
G02*
Y120834I0J-3550D01*
G01*
Y79228D01*
G75*
G02*
X405723Y74384I-4410J-4843D01*
G01*
G75*
G02*
X403583Y69541I-6549J0D01*
G01*
Y47663D01*
G37*
X386173D02*
G36*
X386173Y47663D02*
X403583D01*
Y69541D01*
G75*
G02*
X399173Y67834I-4410J4844D01*
G01*
G75*
G02*
X392623Y74384I0J6550D01*
G01*
G75*
G02*
X399173Y80934I6550J0D01*
G01*
G75*
G02*
X403583Y79228I1J-6550D01*
G01*
Y120834D01*
G75*
G02*
Y127934I0J3550D01*
G01*
Y231139D01*
X386173D01*
Y103134D01*
G75*
G02*
X392923Y96384I0J-6750D01*
G01*
G75*
G02*
X386173Y89634I-6750J0D01*
G01*
Y47663D01*
G37*
X373976D02*
G36*
X373976Y47663D02*
X386173D01*
Y89634D01*
G75*
G02*
X379423Y96384I0J6750D01*
G01*
G75*
G02*
X386173Y103134I6750J0D01*
G01*
Y231139D01*
X373976D01*
Y92501D01*
G75*
G02*
Y85401I0J-3550D01*
G01*
Y47663D01*
G37*
X370041D02*
G36*
X370041Y47663D02*
X373976D01*
Y85401D01*
G75*
G02*
Y92501I0J3550D01*
G01*
Y231139D01*
X370041D01*
Y101163D01*
G75*
G02*
Y94063I0J-3550D01*
G01*
Y47663D01*
G37*
X357047D02*
G36*
X357047Y47663D02*
X370041D01*
Y94063D01*
G75*
G02*
Y101163I0J3550D01*
G01*
Y231139D01*
X357047D01*
Y124765D01*
G75*
G02*
Y123216I-3466J-774D01*
G01*
Y91801D01*
G75*
G02*
Y86101I0J-2850D01*
G01*
Y47663D01*
G37*
X337756D02*
G36*
X337756Y47663D02*
X357047D01*
Y86101D01*
G75*
G02*
Y91801I0J2850D01*
G01*
Y123216D01*
G75*
G02*
X353583Y120441I-3464J774D01*
G01*
G75*
G02*
Y127541I0J3550D01*
G01*
G75*
G02*
X357047Y124765I0J-3550D01*
G01*
Y231139D01*
X337756D01*
Y95649D01*
G75*
G02*
Y88549I0J-3550D01*
G01*
Y47663D01*
G37*
X306654D02*
G36*
X306654Y47663D02*
X337756D01*
Y88549D01*
G75*
G02*
Y95649I0J3550D01*
G01*
Y231139D01*
X306654D01*
Y123210D01*
G75*
G02*
Y116110I0J-3550D01*
G01*
Y71004D01*
G75*
G02*
X309778Y64936I-4330J-6068D01*
G01*
G75*
G02*
X306654Y58867I-7455J-1D01*
G01*
Y47663D01*
G37*
X295433D02*
G36*
X295433Y47663D02*
X306654D01*
Y58867D01*
G75*
G02*
X302323Y57480I-4331J6069D01*
G01*
G75*
G02*
X295433Y62087I0J7456D01*
G01*
Y47663D01*
G37*
Y71260D02*
G36*
X295433Y71260D02*
Y67784D01*
G75*
G02*
X302323Y72391I6890J-2849D01*
G01*
G75*
G02*
X306654Y71004I0J-7456D01*
G01*
Y116110D01*
G75*
G02*
Y123210I0J3550D01*
G01*
Y231139D01*
X295433D01*
Y84202D01*
G75*
G02*
X301904Y77731I0J-6471D01*
G01*
G75*
G02*
X295433Y71260I-6471J0D01*
G01*
G37*
X274515Y47663D02*
G36*
X274515Y47663D02*
X295433D01*
Y62087D01*
G75*
G02*
X294867Y64936I6890J2850D01*
G01*
G75*
G02*
X295433Y67784I7454J-1D01*
G01*
Y71260D01*
G75*
G02*
X288962Y77731I0J6471D01*
G01*
G75*
G02*
X295433Y84202I6471J0D01*
G01*
Y231139D01*
X258560D01*
Y225871D01*
G75*
G02*
X262165Y227142I3605J-4478D01*
G01*
G75*
G02*
X264796Y216279I0J-5750D01*
G01*
G75*
G02*
X262165Y205842I-2631J-4887D01*
G01*
G75*
G02*
X258560Y207173I1J5549D01*
G01*
Y193588D01*
G75*
G02*
X262165Y194859I3605J-4478D01*
G01*
G75*
G02*
X264796Y183996I0J-5750D01*
G01*
G75*
G02*
X262165Y173559I-2631J-4887D01*
G01*
G75*
G02*
X258560Y174889I-1J5549D01*
G01*
Y169598D01*
X271614D01*
G75*
G02*
X273914Y167298I0J-2300D01*
G01*
Y67691D01*
X273912Y67603D01*
G75*
G02*
X278406Y70718I4494J-1684D01*
G01*
G75*
G02*
X282638Y68180I0J-4798D01*
G01*
G75*
G02*
X286870Y70718I4232J-2260D01*
G01*
G75*
G02*
X291668Y65920I0J-4798D01*
G01*
G75*
G02*
X291024Y63519I-4799J0D01*
G01*
G75*
G02*
X289331Y54232I-1693J-4489D01*
G01*
G75*
G02*
X285176Y61431I0J4798D01*
G01*
G75*
G02*
X282638Y63659I1693J4488D01*
G01*
G75*
G02*
X280099Y61431I-4231J2261D01*
G01*
G75*
G02*
X275966Y54232I-4155J-2401D01*
G01*
G75*
G02*
X274515Y47663I-6124J-2092D01*
G01*
G37*
X269880Y67691D02*
X271614D01*
Y167298D01*
X256260D01*
Y233439D01*
X432244D01*
Y270384D01*
G75*
G02*
X425262Y291263I4331J13055D01*
G01*
X254975D01*
G75*
G02*
X236232Y271864I-11313J-7823D01*
G01*
Y268289D01*
G75*
G02*
X238661Y268966I2430J-4022D01*
G01*
G75*
G02*
Y259567I0J-4699D01*
G01*
G75*
G02*
X236232Y260243I-1J4698D01*
G01*
Y258289D01*
G75*
G02*
X238661Y258966I2430J-4022D01*
G01*
G75*
G02*
Y249567I0J-4699D01*
G01*
G75*
G02*
X236232Y250243I-1J4698D01*
G01*
Y248289D01*
G75*
G02*
X238661Y248966I2430J-4022D01*
G01*
G75*
G02*
Y239567I0J-4699D01*
G01*
G75*
G02*
X236232Y240243I-1J4698D01*
G01*
Y238289D01*
G75*
G02*
X238661Y238966I2430J-4022D01*
G01*
G75*
G02*
Y229567I0J-4699D01*
G01*
G75*
G02*
X236232Y230243I-1J4698D01*
G01*
Y228289D01*
G75*
G02*
X238661Y228966I2430J-4022D01*
G01*
G75*
G02*
Y219567I0J-4699D01*
G01*
G75*
G02*
X236232Y220243I-1J4698D01*
G01*
Y218289D01*
G75*
G02*
X238661Y218966I2430J-4022D01*
G01*
G75*
G02*
Y209567I0J-4699D01*
G01*
G75*
G02*
X236232Y210243I-1J4698D01*
G01*
Y208289D01*
G75*
G02*
X238661Y208966I2430J-4022D01*
G01*
G75*
G02*
Y199567I0J-4699D01*
G01*
G75*
G02*
X236232Y200243I-1J4698D01*
G01*
Y198289D01*
G75*
G02*
X238661Y198966I2430J-4022D01*
G01*
G75*
G02*
Y189567I0J-4699D01*
G01*
G75*
G02*
X236232Y190243I-1J4698D01*
G01*
Y188289D01*
G75*
G02*
X238661Y188966I2430J-4022D01*
G01*
G75*
G02*
Y179567I0J-4699D01*
G01*
G75*
G02*
X236232Y180243I-1J4698D01*
G01*
Y178289D01*
G75*
G02*
X238661Y178966I2430J-4022D01*
G01*
G75*
G02*
Y169567I0J-4699D01*
G01*
G75*
G02*
X236232Y170243I-1J4698D01*
G01*
Y168289D01*
G75*
G02*
X238661Y168966I2430J-4022D01*
G01*
G75*
G02*
Y159567I0J-4699D01*
G01*
G75*
G02*
X236232Y160243I-1J4698D01*
G01*
Y158289D01*
G75*
G02*
X238661Y158966I2430J-4022D01*
G01*
G75*
G02*
Y149567I0J-4699D01*
G01*
G75*
G02*
X236232Y150243I-1J4698D01*
G01*
Y148289D01*
G75*
G02*
X238661Y148966I2430J-4022D01*
G01*
G75*
G02*
Y139567I0J-4699D01*
G01*
G75*
G02*
X236232Y140243I-1J4698D01*
G01*
Y138289D01*
G75*
G02*
X238661Y138966I2430J-4022D01*
G01*
G75*
G02*
Y129567I0J-4699D01*
G01*
G75*
G02*
X236232Y130243I-1J4698D01*
G01*
Y128289D01*
G75*
G02*
X238661Y128966I2430J-4022D01*
G01*
G75*
G02*
Y119567I0J-4699D01*
G01*
G75*
G02*
X236232Y120243I-1J4698D01*
G01*
Y118289D01*
G75*
G02*
X238661Y118966I2430J-4022D01*
G01*
G75*
G02*
Y109567I0J-4699D01*
G01*
G75*
G02*
X236232Y110243I-1J4698D01*
G01*
Y108289D01*
G75*
G02*
X238661Y108966I2430J-4022D01*
G01*
G75*
G02*
Y99567I0J-4699D01*
G01*
G75*
G02*
X236232Y100243I-1J4698D01*
G01*
Y98289D01*
G75*
G02*
X238661Y98966I2430J-4022D01*
G01*
G75*
G02*
Y89567I0J-4699D01*
G01*
G75*
G02*
X236232Y90243I-1J4698D01*
G01*
Y88521D01*
G75*
G02*
X238661Y89166I2430J-4254D01*
G01*
G75*
G02*
Y79367I0J-4899D01*
G01*
G75*
G02*
X236232Y80011I-1J4898D01*
G01*
Y78521D01*
G75*
G02*
X238661Y79166I2430J-4254D01*
G01*
G75*
G02*
Y69367I0J-4899D01*
G01*
G75*
G02*
X236232Y70011I-1J4898D01*
G01*
Y67691D01*
X238141D01*
G75*
G02*
X249182I5521J-12599D01*
G01*
X256025D01*
G75*
G02*
X269880I6928J-2756D01*
G01*
X288543Y275165D02*
G75*
G02*
Y282265I0J3550D01*
G01*
G75*
G02*
Y275165I0J-3550D01*
G01*
X325945Y282164D02*
G75*
G02*
Y287864I0J2850D01*
G01*
G75*
G02*
Y282164I0J-2850D01*
G01*
X261771Y277440D02*
G75*
G02*
Y283140I0J2850D01*
G01*
G75*
G02*
Y277440I0J-2850D01*
G01*
X248661Y259567D02*
G75*
G02*
Y268966I0J4700D01*
G01*
G75*
G02*
Y259567I0J-4699D01*
G01*
Y249567D02*
G75*
G02*
Y258966I0J4700D01*
G01*
G75*
G02*
Y249567I0J-4699D01*
G01*
Y239567D02*
G75*
G02*
Y248966I0J4700D01*
G01*
G75*
G02*
Y239567I0J-4699D01*
G01*
Y229567D02*
G75*
G02*
Y238966I0J4700D01*
G01*
G75*
G02*
Y229567I0J-4699D01*
G01*
X257846Y261120D02*
G75*
G02*
X260591Y269635I2745J3815D01*
G01*
G75*
G02*
X263335Y261120I0J-4700D01*
G01*
G75*
G02*
Y253003I-2744J-4058D01*
G01*
G75*
G02*
X263157Y245250I-2745J-3816D01*
G01*
G75*
G02*
X260591Y236614I-2566J-3937D01*
G01*
G75*
G02*
X258024Y245250I0J4699D01*
G01*
G75*
G02*
X257846Y253003I2567J3937D01*
G01*
G75*
G02*
Y261120I2744J4059D01*
G01*
X318859Y264054D02*
G75*
G02*
Y269754I0J2850D01*
G01*
G75*
G02*
Y264054I0J-2850D01*
G01*
X383583Y251543D02*
G75*
G02*
Y258643I0J3550D01*
G01*
G75*
G02*
Y251543I0J-3550D01*
G01*
X373583D02*
G75*
G02*
Y258643I0J3550D01*
G01*
G75*
G02*
Y251543I0J-3550D01*
G01*
X314055D02*
G75*
G02*
Y258643I0J3550D01*
G01*
G75*
G02*
Y251543I0J-3550D01*
G01*
X248661Y219567D02*
G75*
G02*
Y228966I0J4700D01*
G01*
G75*
G02*
Y219567I0J-4699D01*
G01*
Y209567D02*
G75*
G02*
Y218966I0J4700D01*
G01*
G75*
G02*
Y209567I0J-4699D01*
G01*
Y199567D02*
G75*
G02*
Y208966I0J4700D01*
G01*
G75*
G02*
Y199567I0J-4699D01*
G01*
Y189567D02*
G75*
G02*
Y198966I0J4700D01*
G01*
G75*
G02*
Y189567I0J-4699D01*
G01*
Y179567D02*
G75*
G02*
Y188966I0J4700D01*
G01*
G75*
G02*
Y179567I0J-4699D01*
G01*
Y169567D02*
G75*
G02*
Y178966I0J4700D01*
G01*
G75*
G02*
Y169567I0J-4699D01*
G01*
Y159567D02*
G75*
G02*
Y168966I0J4700D01*
G01*
G75*
G02*
Y159567I0J-4699D01*
G01*
Y149567D02*
G75*
G02*
Y158966I0J4700D01*
G01*
G75*
G02*
Y149567I0J-4699D01*
G01*
Y139567D02*
G75*
G02*
Y148966I0J4700D01*
G01*
G75*
G02*
Y139567I0J-4699D01*
G01*
Y129567D02*
G75*
G02*
Y138966I0J4700D01*
G01*
G75*
G02*
Y129567I0J-4699D01*
G01*
X259535Y151870D02*
G75*
G02*
X262165Y162733I2630J5113D01*
G01*
G75*
G02*
X264796Y151870I0J-5750D01*
G01*
G75*
G02*
X264574Y141983I-2631J-4887D01*
G01*
G75*
G02*
X262165Y131433I-2409J-5000D01*
G01*
G75*
G02*
X259757Y141983I0J5550D01*
G01*
G75*
G02*
X259535Y151870I2409J5000D01*
G01*
X248661Y119567D02*
G75*
G02*
Y128966I0J4700D01*
G01*
G75*
G02*
Y119567I0J-4699D01*
G01*
Y109567D02*
G75*
G02*
Y118966I0J4700D01*
G01*
G75*
G02*
Y109567I0J-4699D01*
G01*
Y99567D02*
G75*
G02*
Y108966I0J4700D01*
G01*
G75*
G02*
Y99567I0J-4699D01*
G01*
X259535Y109744D02*
G75*
G02*
X262165Y120607I2630J5113D01*
G01*
G75*
G02*
X264796Y109744I0J-5750D01*
G01*
G75*
G02*
X264574Y99857I-2631J-4887D01*
G01*
G75*
G02*
X262165Y89307I-2409J-5000D01*
G01*
G75*
G02*
X259757Y99857I0J5550D01*
G01*
G75*
G02*
X259535Y109744I2409J5000D01*
G01*
X248661Y89567D02*
G75*
G02*
Y98966I0J4700D01*
G01*
G75*
G02*
Y89567I0J-4699D01*
G01*
Y79567D02*
G75*
G02*
Y88966I0J4700D01*
G01*
G75*
G02*
Y79567I0J-4699D01*
G01*
Y69567D02*
G75*
G02*
Y78966I0J4700D01*
G01*
G75*
G02*
Y69567I0J-4699D01*
G01*
X383583Y233439D02*
G36*
X383583Y233439D02*
X432244D01*
Y270384D01*
G75*
G02*
X425262Y291263I4331J13055D01*
G01*
X383583D01*
Y258643D01*
G75*
G02*
Y251543I0J-3550D01*
G01*
Y233439D01*
G37*
X373583D02*
G36*
X373583Y233439D02*
X383583D01*
Y251543D01*
G75*
G02*
Y258643I0J3550D01*
G01*
Y291263D01*
X373583D01*
Y258643D01*
G75*
G02*
Y251543I0J-3550D01*
G01*
Y233439D01*
G37*
X325945D02*
G36*
X325945Y233439D02*
X373583D01*
Y251543D01*
G75*
G02*
Y258643I0J3550D01*
G01*
Y291263D01*
X325945D01*
Y287864D01*
G75*
G02*
Y282164I0J-2850D01*
G01*
Y233439D01*
G37*
X318859D02*
G36*
X318859Y233439D02*
X325945D01*
Y282164D01*
G75*
G02*
Y287864I0J2850D01*
G01*
Y291263D01*
X318859D01*
Y269754D01*
G75*
G02*
Y264054I0J-2850D01*
G01*
Y233439D01*
G37*
X314055D02*
G36*
X314055Y233439D02*
X318859D01*
Y264054D01*
G75*
G02*
Y269754I0J2850D01*
G01*
Y291263D01*
X314055D01*
Y258643D01*
G75*
G02*
Y251543I0J-3550D01*
G01*
Y233439D01*
G37*
X288543D02*
G36*
X288543Y233439D02*
X314055D01*
Y251543D01*
G75*
G02*
Y258643I0J3550D01*
G01*
Y291263D01*
X288543D01*
Y282265D01*
G75*
G02*
Y275165I0J-3550D01*
G01*
Y233439D01*
G37*
X269880Y67691D02*
G36*
X269880Y67691D02*
X271614D01*
Y167298D01*
X261771D01*
Y162719D01*
G75*
G02*
X262165Y162733I401J-5735D01*
G01*
G75*
G02*
X264796Y151870I0J-5750D01*
G01*
G75*
G02*
X264574Y141983I-2631J-4887D01*
G01*
G75*
G02*
X262165Y131433I-2409J-5000D01*
G01*
G75*
G02*
X261771Y131447I0J5549D01*
G01*
Y120593D01*
G75*
G02*
X262165Y120607I401J-5735D01*
G01*
G75*
G02*
X264796Y109744I0J-5750D01*
G01*
G75*
G02*
X264574Y99857I-2631J-4887D01*
G01*
G75*
G02*
X262165Y89307I-2409J-5000D01*
G01*
G75*
G02*
X261771Y89321I0J5549D01*
G01*
Y72297D01*
G75*
G02*
X262953Y72391I1180J-7365D01*
G01*
G75*
G02*
X269880Y67691I-1J-7455D01*
G01*
G37*
X261771Y233439D02*
G36*
X261771Y233439D02*
X288543D01*
Y275165D01*
G75*
G02*
Y282265I0J3550D01*
G01*
Y291263D01*
X261771D01*
Y283140D01*
G75*
G02*
Y277440I0J-2850D01*
G01*
Y269484D01*
G75*
G02*
X263335Y261120I-1181J-4549D01*
G01*
G75*
G02*
Y253003I-2744J-4058D01*
G01*
G75*
G02*
X263157Y245250I-2745J-3816D01*
G01*
G75*
G02*
X261771Y236765I-2566J-3936D01*
G01*
Y233439D01*
G37*
X249182Y67691D02*
G36*
X249182Y67691D02*
X256025D01*
G75*
G02*
X261771Y72297I6928J-2756D01*
G01*
Y89321D01*
G75*
G02*
X259757Y99857I394J5536D01*
G01*
G75*
G02*
X259535Y109744I2409J5000D01*
G01*
G75*
G02*
X261771Y120593I2630J5113D01*
G01*
Y131447D01*
G75*
G02*
X259757Y141983I394J5536D01*
G01*
G75*
G02*
X259535Y151870I2409J5000D01*
G01*
G75*
G02*
X261771Y162719I2630J5113D01*
G01*
Y167298D01*
X256260D01*
Y233439D01*
X261771D01*
Y236765D01*
G75*
G02*
X260591Y236614I-1181J4546D01*
G01*
G75*
G02*
X258024Y245250I0J4699D01*
G01*
G75*
G02*
X257846Y253003I2567J3937D01*
G01*
G75*
G02*
Y261120I2744J4059D01*
G01*
G75*
G02*
X260591Y269635I2745J3815D01*
G01*
G75*
G02*
X261771Y269484I-1J-4697D01*
G01*
Y277440D01*
G75*
G02*
Y283140I0J2850D01*
G01*
Y291263D01*
X254975D01*
G75*
G02*
X248661Y270626I-11314J-7823D01*
G01*
Y268966D01*
G75*
G02*
Y259567I0J-4699D01*
G01*
Y258966D01*
G75*
G02*
Y249567I0J-4699D01*
G01*
Y248966D01*
G75*
G02*
Y239567I0J-4699D01*
G01*
Y238966D01*
G75*
G02*
Y229567I0J-4699D01*
G01*
Y228966D01*
G75*
G02*
Y219567I0J-4699D01*
G01*
Y218966D01*
G75*
G02*
Y209567I0J-4699D01*
G01*
Y208966D01*
G75*
G02*
Y199567I0J-4699D01*
G01*
Y198966D01*
G75*
G02*
Y189567I0J-4699D01*
G01*
Y188966D01*
G75*
G02*
Y179567I0J-4699D01*
G01*
Y178966D01*
G75*
G02*
Y169567I0J-4699D01*
G01*
Y168966D01*
G75*
G02*
Y159567I0J-4699D01*
G01*
Y158966D01*
G75*
G02*
Y149567I0J-4699D01*
G01*
Y148966D01*
G75*
G02*
Y139567I0J-4699D01*
G01*
Y138966D01*
G75*
G02*
Y129567I0J-4699D01*
G01*
Y128966D01*
G75*
G02*
Y119567I0J-4699D01*
G01*
Y118966D01*
G75*
G02*
Y109567I0J-4699D01*
G01*
Y108966D01*
G75*
G02*
Y99567I0J-4699D01*
G01*
Y98966D01*
G75*
G02*
Y89567I0J-4699D01*
G01*
Y88966D01*
G75*
G02*
Y79567I0J-4699D01*
G01*
Y78966D01*
G75*
G02*
Y69567I0J-4699D01*
G01*
Y67907D01*
G75*
G02*
X249182Y67691I-5016J-12834D01*
G01*
G37*
X236232D02*
G36*
X236232Y67691D02*
X238141D01*
G75*
G02*
X243661Y68848I5522J-12598D01*
G01*
G75*
G02*
X248661Y67907I0J-13755D01*
G01*
Y69567D01*
G75*
G02*
Y78966I0J4700D01*
G01*
Y79567D01*
G75*
G02*
Y88966I0J4700D01*
G01*
Y89567D01*
G75*
G02*
Y98966I0J4700D01*
G01*
Y99567D01*
G75*
G02*
Y108966I0J4700D01*
G01*
Y109567D01*
G75*
G02*
Y118966I0J4700D01*
G01*
Y119567D01*
G75*
G02*
Y128966I0J4700D01*
G01*
Y129567D01*
G75*
G02*
Y138966I0J4700D01*
G01*
Y139567D01*
G75*
G02*
Y148966I0J4700D01*
G01*
Y149567D01*
G75*
G02*
Y158966I0J4700D01*
G01*
Y159567D01*
G75*
G02*
Y168966I0J4700D01*
G01*
Y169567D01*
G75*
G02*
Y178966I0J4700D01*
G01*
Y179567D01*
G75*
G02*
Y188966I0J4700D01*
G01*
Y189567D01*
G75*
G02*
Y198966I0J4700D01*
G01*
Y199567D01*
G75*
G02*
Y208966I0J4700D01*
G01*
Y209567D01*
G75*
G02*
Y218966I0J4700D01*
G01*
Y219567D01*
G75*
G02*
Y228966I0J4700D01*
G01*
Y229567D01*
G75*
G02*
Y238966I0J4700D01*
G01*
Y239567D01*
G75*
G02*
Y248966I0J4700D01*
G01*
Y249567D01*
G75*
G02*
Y258966I0J4700D01*
G01*
Y259567D01*
G75*
G02*
Y268966I0J4700D01*
G01*
Y270626D01*
G75*
G02*
X243661Y269685I-5000J12814D01*
G01*
G75*
G02*
X236232Y271864I0J13754D01*
G01*
Y268289D01*
G75*
G02*
X238661Y268966I2430J-4022D01*
G01*
X238661D01*
G75*
G02*
Y259567I0J-4699D01*
G01*
X238661D01*
G75*
G02*
X236232Y260243I-1J4698D01*
G01*
Y258289D01*
G75*
G02*
X238661Y258966I2430J-4022D01*
G01*
X238661D01*
G75*
G02*
Y249567I0J-4699D01*
G01*
X238661D01*
G75*
G02*
X236232Y250243I-1J4698D01*
G01*
Y248289D01*
G75*
G02*
X238661Y248966I2430J-4022D01*
G01*
X238661D01*
G75*
G02*
Y239567I0J-4699D01*
G01*
X238661D01*
G75*
G02*
X236232Y240243I-1J4698D01*
G01*
Y238289D01*
G75*
G02*
X238661Y238966I2430J-4022D01*
G01*
X238661D01*
G75*
G02*
Y229567I0J-4699D01*
G01*
X238661D01*
G75*
G02*
X236232Y230243I-1J4698D01*
G01*
Y228289D01*
G75*
G02*
X238661Y228966I2430J-4022D01*
G01*
X238661D01*
G75*
G02*
Y219567I0J-4699D01*
G01*
X238661D01*
G75*
G02*
X236232Y220243I-1J4698D01*
G01*
Y218289D01*
G75*
G02*
X238661Y218966I2430J-4022D01*
G01*
X238661D01*
G75*
G02*
Y209567I0J-4699D01*
G01*
X238661D01*
G75*
G02*
X236232Y210243I-1J4698D01*
G01*
Y208289D01*
G75*
G02*
X238661Y208966I2430J-4022D01*
G01*
X238661D01*
G75*
G02*
Y199567I0J-4699D01*
G01*
X238661D01*
G75*
G02*
X236232Y200243I-1J4698D01*
G01*
Y198289D01*
G75*
G02*
X238661Y198966I2430J-4022D01*
G01*
X238661D01*
G75*
G02*
Y189567I0J-4699D01*
G01*
X238661D01*
G75*
G02*
X236232Y190243I-1J4698D01*
G01*
Y188289D01*
G75*
G02*
X238661Y188966I2430J-4022D01*
G01*
X238661D01*
G75*
G02*
Y179567I0J-4699D01*
G01*
X238661D01*
G75*
G02*
X236232Y180243I-1J4698D01*
G01*
Y178289D01*
G75*
G02*
X238661Y178966I2430J-4022D01*
G01*
X238661D01*
G75*
G02*
Y169567I0J-4699D01*
G01*
X238661D01*
G75*
G02*
X236232Y170243I-1J4698D01*
G01*
Y168289D01*
G75*
G02*
X238661Y168966I2430J-4022D01*
G01*
X238661D01*
G75*
G02*
Y159567I0J-4699D01*
G01*
X238661D01*
G75*
G02*
X236232Y160243I-1J4698D01*
G01*
Y158289D01*
G75*
G02*
X238661Y158966I2430J-4022D01*
G01*
X238661D01*
G75*
G02*
Y149567I0J-4699D01*
G01*
X238661D01*
G75*
G02*
X236232Y150243I-1J4698D01*
G01*
Y148289D01*
G75*
G02*
X238661Y148966I2430J-4022D01*
G01*
X238661D01*
G75*
G02*
Y139567I0J-4699D01*
G01*
X238661D01*
G75*
G02*
X236232Y140243I-1J4698D01*
G01*
Y138289D01*
G75*
G02*
X238661Y138966I2430J-4022D01*
G01*
X238661D01*
G75*
G02*
Y129567I0J-4699D01*
G01*
X238661D01*
G75*
G02*
X236232Y130243I-1J4698D01*
G01*
Y128289D01*
G75*
G02*
X238661Y128966I2430J-4022D01*
G01*
X238661D01*
G75*
G02*
Y119567I0J-4699D01*
G01*
X238661D01*
G75*
G02*
X236232Y120243I-1J4698D01*
G01*
Y118289D01*
G75*
G02*
X238661Y118966I2430J-4022D01*
G01*
X238661D01*
G75*
G02*
Y109567I0J-4699D01*
G01*
X238661D01*
G75*
G02*
X236232Y110243I-1J4698D01*
G01*
Y108289D01*
G75*
G02*
X238661Y108966I2430J-4022D01*
G01*
X238661D01*
G75*
G02*
Y99567I0J-4699D01*
G01*
X238661D01*
G75*
G02*
X236232Y100243I-1J4698D01*
G01*
Y98289D01*
G75*
G02*
X238661Y98966I2430J-4022D01*
G01*
X238661D01*
G75*
G02*
Y89567I0J-4699D01*
G01*
X238661D01*
G75*
G02*
X236232Y90243I-1J4698D01*
G01*
Y88521D01*
G75*
G02*
X238661Y89166I2430J-4254D01*
G01*
X238661D01*
G75*
G02*
Y79367I0J-4899D01*
G01*
X238661D01*
G75*
G02*
X236232Y80011I-1J4898D01*
G01*
Y78521D01*
G75*
G02*
X238661Y79166I2430J-4254D01*
G01*
X238661D01*
G75*
G02*
Y69367I0J-4899D01*
G01*
X238661D01*
G75*
G02*
X236232Y70011I-1J4898D01*
G01*
Y67691D01*
G37*
D02*
D70*
X357047Y88951D03*
X318859Y266904D03*
X261771Y280290D03*
X364528Y285014D03*
X325945D03*
D02*
D74*
X238661Y71174D02*
Y69367D01*
X241753Y74266D02*
X243561D01*
X238661Y77358D02*
Y79166D01*
Y81174D02*
Y79367D01*
X241753Y84266D02*
X243561D01*
X238661Y87358D02*
Y89166D01*
X386173Y91420D02*
Y89634D01*
X391137Y96384D02*
X392923D01*
X381209D02*
X379423D01*
X386173Y101348D02*
Y103134D01*
X266120Y114857D02*
X267915D01*
X258211D02*
X256415D01*
X262165Y118811D02*
Y120607D01*
X266120Y156983D02*
X267915D01*
X258211D02*
X256415D01*
X262165Y160937D02*
Y162733D01*
X266120Y189109D02*
X267915D01*
X262165Y193063D02*
Y194859D01*
X266120Y221392D02*
X267915D01*
X262165Y225347D02*
Y227142D01*
X263682Y257061D02*
X265490D01*
X257499D02*
X255691D01*
D02*
D81*
X373976Y88951D03*
X337756Y92099D03*
X325551Y92495D03*
X370041Y97613D03*
X306654Y119660D03*
X353583Y123991D03*
X413583Y124384D03*
X403583D03*
X393583D03*
X383583D03*
X432638Y135014D03*
X310591Y192101D03*
Y206668D03*
X413583Y255093D03*
X403583D03*
X393583D03*
X383583D03*
X373583D03*
X314055D03*
X288543Y278715D03*
D02*
D84*
X262165Y189109D02*
X270827D01*
X262165Y221392D02*
X272008D01*
D02*
D94*
X399173Y74384D03*
X412173Y96384D03*
X386173D03*
D02*
D133*
X248661Y74266D03*
X238661D03*
X248661Y84266D03*
X238661D03*
X248661Y94266D03*
X238661D03*
X248661Y104266D03*
X238661D03*
X248661Y114266D03*
X238661D03*
X248661Y124266D03*
X238661D03*
X248661Y134266D03*
X238661D03*
X248661Y144266D03*
X238661D03*
X248661Y154266D03*
X238661D03*
X248661Y164266D03*
X238661D03*
X248661Y174266D03*
X238661D03*
X248661Y184266D03*
X238661D03*
X248661Y194266D03*
X238661D03*
X248661Y204266D03*
X238661D03*
X248661Y214266D03*
X238661D03*
X248661Y224266D03*
X238661D03*
X248661Y234266D03*
X238661D03*
X248661Y244266D03*
X238661D03*
X248661Y254266D03*
X238661D03*
X248661Y264266D03*
X238661D03*
D02*
D134*
X436575Y55093D03*
X243661D03*
X436575Y283439D03*
X243661D03*
D02*
D135*
X260591Y241313D03*
Y249187D03*
Y257061D03*
Y264936D03*
D02*
D136*
X262165Y94857D03*
Y104857D03*
Y114857D03*
Y136983D03*
Y146983D03*
Y156983D03*
Y179109D03*
Y189109D03*
Y211392D03*
Y221392D03*
D02*
D137*
X289331Y59030D03*
X275945D03*
X286870Y65920D03*
X278406D03*
D02*
D138*
X269843Y52140D03*
X295433Y77731D03*
D02*
D139*
X302323Y64936D03*
X262953D03*
X0Y0D02*
M02*
