M48
FMAT,1
INCH
T01C000.01000
T02C000.02800
T03C000.03150
T04C000.03937
T05C000.04300
T06C000.04724
T07C000.06700
T08C000.10827
%
G81
M70
T01
X00357047Y00088951
X00318859Y00266904
X00261771Y00280290
X00364528Y00285014
X00325945Y00285014
T02
X00373976Y00088951
X00337756Y00092099
X00325551Y00092495
X00370041Y00097613
X00306654Y00119660
X00353583Y00123991
X00413583Y00124384
X00403583Y00124384
X00393583Y00124384
X00383583Y00124384
X00432638Y00135014
X00310591Y00192101
X00310591Y00206668
X00413583Y00255093
X00403583Y00255093
X00393583Y00255093
X00383583Y00255093
X00373583Y00255093
X00314055Y00255093
X00288543Y00278715
T03
X00260591Y00241313
X00260591Y00249187
X00260591Y00257061
X00260591Y00264936
T04
X00248661Y00074266
X00238661Y00074266
X00248661Y00084266
X00238661Y00084266
X00248661Y00094266
X00238661Y00094266
X00248661Y00104266
X00238661Y00104266
X00248661Y00114266
X00238661Y00114266
X00248661Y00124266
X00238661Y00124266
X00248661Y00134266
X00238661Y00134266
X00248661Y00144266
X00238661Y00144266
X00248661Y00154266
X00238661Y00154266
X00248661Y00164266
X00238661Y00164266
X00248661Y00174266
X00238661Y00174266
X00248661Y00184266
X00238661Y00184266
X00248661Y00194266
X00238661Y00194266
X00248661Y00204266
X00238661Y00204266
X00248661Y00214266
X00238661Y00214266
X00248661Y00224266
X00238661Y00224266
X00248661Y00234266
X00238661Y00234266
X00248661Y00244266
X00238661Y00244266
X00248661Y00254266
X00238661Y00254266
X00248661Y00264266
X00238661Y00264266
T05
X00262165Y00094857
X00262165Y00104857
X00262165Y00114857
X00262165Y00136983
X00262165Y00146983
X00262165Y00156983
X00262165Y00179109
X00262165Y00189109
X00262165Y00211392
X00262165Y00221392
T06
X00289331Y00059030
X00275945Y00059030
X00286870Y00065920
X00278406Y00065920
T07
X00399173Y00074384
X00412173Y00096384
X00386173Y00096384
T08
X00436575Y00055093
X00243661Y00055093
X00436575Y00283439
X00243661Y00283439
M30
