G04 GENERATED BY PULSONIX 11.0 GERBER.DLL 8468*
G04 #@! TF.GenerationSoftware,Pulsonix,Pulsonix,11.0.8468*
G04 #@! TF.CreationDate,2022-02-02T18:24:52+05:00*
G04 #@! TF.Part,Single*
%INCSPAM*%
%LNTOP*%
%FSLAX35Y35*%
%LPD*%
%MOIN*%
G04 #@! TF.FileFunction,Copper,L1,Top*
G04 #@! TF.FilePolarity,Positive*
G04 #@! TA.AperFunction,Conductor*
%ADD12C,0.00800*%
G04 #@! TA.AperFunction,ViaPad*
%ADD70C,0.02600X0.01000*%
%ADD81C,0.04000X0.02800*%
G04 #@! TA.AperFunction,Conductor*
%ADD83C,0.02500*%
%ADD84C,0.05000*%
G04 #@! TA.AperFunction,ComponentPad*
%ADD94C,0.10000X0.06700*%
G04 #@! TA.AperFunction,SMDPad,CuDef*
%ADD107R,0.03543X0.03150*%
%ADD108R,0.03150X0.03543*%
%ADD116R,0.03937X0.05906*%
%ADD120R,0.03543X0.06299*%
G04 #@! TA.AperFunction,ComponentPad*
%ADD133C,0.06299X0.03937*%
%ADD134C,0.24409X0.10827*%
%ADD135C,0.06299X0.03150*%
%ADD136C,0.08000X0.04300*%
%ADD137C,0.06496X0.04724*%
%ADD138C,0.09843X0.05906*%
%ADD139C,0.11811X0.07874*%
G04 #@! TA.AperFunction,SMDPad,CuDef*
%ADD161R,0.04724X0.12598*%
%ADD162R,0.09843X0.12598*%
%ADD163R,0.11496X0.10984*%
%ADD164R,0.03937X0.02756*%
%ADD165R,0.09843X0.12992*%
%ADD166R,0.12992X0.09843*%
%ADD167R,0.03543X0.02756*%
%ADD168R,0.04724X0.06299*%
%ADD169R,0.12992X0.06299*%
G04 #@! TD.AperFunction*
X0Y0D02*
D02*
D12*
X362362Y85211D02*
X370041D01*
X354094Y88951D02*
X356147D01*
X362362Y92691D02*
Y95644D01*
X369646Y102928D01*
Y198793D01*
X355078Y213361D01*
Y285014D01*
X362362Y92691D02*
Y90526D01*
X357047Y85211D01*
X354094D01*
X264715Y94857D02*
X278701D01*
X288543Y104699D01*
Y106667D01*
X353897Y99975D02*
X354094D01*
Y92691D01*
X304685Y106667D02*
X311772D01*
X295630Y112967D02*
Y115329D01*
X293661Y117298D01*
X281851D01*
X263969Y135180D01*
X288543Y112967D02*
X281457D01*
X265315Y129109D01*
X246811D01*
X243661Y132258D01*
Y249266D01*
X240336Y252591D01*
X305381Y118387D02*
X304685Y117691D01*
Y112967D01*
X288543Y127731D02*
Y122022D01*
X290512Y120054D01*
X294843D01*
X300354Y114542D01*
Y108242D01*
X301929Y106667D01*
X304685D01*
X288543Y127731D02*
Y138951D01*
X253504Y173991D01*
Y229424D01*
X250336Y232591D01*
X281063Y241313D02*
X262565D01*
X237427Y262245D02*
X233819Y258636D01*
Y131865D01*
X236575Y129109D01*
X240906D01*
X243661Y126353D01*
Y122022D01*
X246417Y119266D01*
X251142D01*
X255866Y114542D01*
Y91313D01*
X257835Y89345D01*
X281063D01*
X295630Y103912D01*
Y106667D01*
X373583Y268085D02*
Y282601D01*
X367283Y288900D01*
X350354D01*
X348780Y287326D01*
Y285014D01*
X312559Y271038D02*
Y265329D01*
X320433Y257455D01*
Y229896D01*
X309803Y219266D01*
X282638D01*
X268465Y205093D01*
X259803D01*
X255866Y209030D01*
Y237061D01*
X250336Y242591D01*
X312559Y271038D02*
Y271235D01*
Y271038D02*
X306654D01*
Y277927D01*
X307835Y279109D01*
Y285014D01*
X288543Y271038D02*
X288937D01*
Y281471D01*
X288937Y281471D01*
Y285014D01*
X318859Y271235D02*
Y276747D01*
X315708Y279897D01*
Y285014D01*
X318859Y271235D02*
Y267804D01*
X281063Y272416D02*
Y275565D01*
X281063D01*
Y285014D01*
X281063Y272416D02*
X260197D01*
X255472Y267691D01*
Y261077D01*
X250336Y255941D01*
X281063Y272416D02*
Y247613D01*
X325945Y284114D02*
Y236196D01*
X367677Y194463D01*
Y103518D01*
X364134Y99975D01*
X360197D01*
X361378Y285014D02*
X363628D01*
X342480D02*
X336181D01*
X326845D02*
X329881D01*
X322008D02*
X322402D01*
Y127534D01*
X311772Y116904D01*
Y112967D01*
X295237Y285014D02*
X301535D01*
X274763D02*
X268465D01*
X262165D02*
Y282652D01*
X261771D01*
Y281190D01*
D02*
D70*
X357047Y88951D03*
X318859Y266904D03*
X261771Y280290D03*
X364528Y285014D03*
X325945D03*
D02*
D81*
X373976Y88951D03*
X337756Y92099D03*
X325551Y92495D03*
X370041Y97613D03*
X306654Y119660D03*
X353583Y123991D03*
X413583Y124384D03*
X403583D03*
X393583D03*
X383583D03*
X432638Y135014D03*
X310591Y192101D03*
Y206668D03*
X413583Y255093D03*
X403583D03*
X393583D03*
X383583D03*
X373583D03*
X314055D03*
X288543Y278715D03*
D02*
D83*
X383898Y82258D02*
X380945Y85211D01*
X378699D01*
X370041Y88951D02*
X373976D01*
X381573Y96432D02*
X379488D01*
X378699Y95642D01*
Y92691D01*
X370041Y97613D02*
Y92691D01*
D02*
D84*
X318681Y61392D02*
Y72810D01*
X304114Y87376D01*
X292382D01*
X286870Y81865D01*
Y65920D01*
X383898Y64542D02*
X407441D01*
X411378Y68479D01*
Y82258D01*
X408622Y85014D01*
X405472D01*
X383898Y64542D02*
Y63361D01*
X371693Y51156D01*
X296417D01*
X289331Y58243D01*
Y59030D01*
X383898Y64542D02*
Y82258D01*
X392874Y85014D02*
Y96432D01*
X393071D01*
X345236Y92099D02*
X337756D01*
X345236D02*
Y67691D01*
X351535Y61392D01*
X359193D01*
X345236Y92099D02*
Y92495D01*
X318465D02*
X325551D01*
X386173Y96384D02*
X393071D01*
Y96432D01*
X405275D02*
Y96384D01*
X412173D01*
X413583Y111392D02*
Y124384D01*
X403583Y111392D02*
Y124384D01*
X393583Y111392D02*
Y124384D01*
X383583Y111392D02*
Y124384D01*
X353583Y111392D02*
Y123991D01*
X306654Y119660D02*
Y127731D01*
X443268Y135014D02*
X432638D01*
X297598Y152731D02*
Y127731D01*
Y152731D02*
X297992Y152534D01*
Y165329D01*
X275945D01*
X262165Y179109D01*
X297992Y192101D02*
X310591D01*
X297992Y206668D02*
X310591D01*
X297992Y233439D02*
X289331D01*
X267283Y211392D01*
X262165D01*
X297992Y233439D02*
Y246235D01*
X297598Y246038D01*
X314055Y244463D02*
Y255093D01*
X297598Y246038D02*
Y271038D01*
X413583Y255093D02*
Y268085D01*
X403583D02*
Y255093D01*
X393583Y268085D02*
Y255093D01*
X383583Y268085D02*
Y255093D01*
X373583Y268085D02*
Y255093D01*
X288543Y271038D02*
Y278715D01*
D02*
D94*
X399173Y74384D03*
X412173Y96384D03*
X386173D03*
D02*
D107*
X311772Y106667D03*
X304685D03*
X295630D03*
X288543D03*
X311772Y112967D03*
X304685D03*
X295630D03*
X288543D03*
X281063Y241313D03*
Y247613D03*
D02*
D108*
X360197Y99975D03*
X353897D03*
X318859Y271235D03*
X312559D03*
X361378Y285014D03*
X355078D03*
X348780D03*
X342480D03*
X336181D03*
X329881D03*
X322008D03*
X315708D03*
X307835D03*
X301535D03*
X295237D03*
X288937D03*
X281063D03*
X274763D03*
X268465D03*
X262165D03*
D02*
D116*
X405472Y85014D03*
X392874D03*
D02*
D120*
X405275Y96432D03*
X393071D03*
D02*
D133*
X248661Y74266D03*
X238661D03*
X248661Y84266D03*
X238661D03*
X248661Y94266D03*
X238661D03*
X248661Y104266D03*
X238661D03*
X248661Y114266D03*
X238661D03*
X248661Y124266D03*
X238661D03*
X248661Y134266D03*
X238661D03*
X248661Y144266D03*
X238661D03*
X248661Y154266D03*
X238661D03*
X248661Y164266D03*
X238661D03*
X248661Y174266D03*
X238661D03*
X248661Y184266D03*
X238661D03*
X248661Y194266D03*
X238661D03*
X248661Y204266D03*
X238661D03*
X248661Y214266D03*
X238661D03*
X248661Y224266D03*
X238661D03*
X248661Y234266D03*
X238661D03*
X248661Y244266D03*
X238661D03*
X248661Y254266D03*
X238661D03*
X248661Y264266D03*
X238661D03*
D02*
D134*
X436575Y55093D03*
X243661D03*
X436575Y283439D03*
X243661D03*
D02*
D135*
X260591Y241313D03*
Y249187D03*
Y257061D03*
Y264936D03*
D02*
D136*
X262165Y94857D03*
Y104857D03*
Y114857D03*
Y136983D03*
Y146983D03*
Y156983D03*
Y179109D03*
Y189109D03*
Y211392D03*
Y221392D03*
D02*
D137*
X289331Y59030D03*
X275945D03*
X286870Y65920D03*
X278406D03*
D02*
D138*
X269843Y52140D03*
X295433Y77731D03*
D02*
D139*
X302323Y64936D03*
X262953D03*
D02*
D161*
X423583Y111392D03*
X413583D03*
X403583D03*
X393583D03*
X383583D03*
X373583D03*
X363583D03*
X353583D03*
X343583D03*
X333583D03*
X423583Y268085D03*
X413583D03*
X403583D03*
X393583D03*
X383583D03*
X373583D03*
X333583D03*
D02*
D162*
X443268Y135014D03*
X314055Y244463D03*
D02*
D163*
X359193Y61392D03*
X318681D03*
D02*
D164*
X378699Y85211D03*
X370041D03*
Y88951D03*
X378699Y92691D03*
X370041D03*
D02*
D165*
X345236Y92495D03*
X318465D03*
D02*
D166*
X297992Y165329D03*
Y192101D03*
Y206668D03*
Y233439D03*
D02*
D167*
X362362Y85211D03*
X354094D03*
Y88951D03*
X362362Y92691D03*
X354094D03*
D02*
D168*
X306654Y127731D03*
X297598D03*
X288543D03*
X306654Y271038D03*
X297598D03*
X288543D03*
D02*
D169*
X297598Y152731D03*
Y246038D03*
X0Y0D02*
M02*
