G04 GENERATED BY PULSONIX 11.0 GERBER.DLL 8468*
G04 #@! TF.GenerationSoftware,Pulsonix,Pulsonix,11.0.8468*
G04 #@! TF.CreationDate,2022-02-02T18:24:52+05:00*
G04 #@! TF.Part,Single*
%INCSPAM*%
%LNSOLDER MASK TOP*%
%FSLAX35Y35*%
%LPD*%
%MOIN*%
G04 #@! TF.FileFunction,Soldermask,Top*
G04 #@! TF.FilePolarity,Negative*
G04 #@! TA.AperFunction,ViaPad*
%ADD26C,0.03600*%
%ADD143C,0.05000*%
G04 #@! TA.AperFunction,ComponentPad*
%ADD144C,0.07299*%
%ADD145C,0.25409*%
%ADD146C,0.11000*%
%ADD147C,0.09000*%
%ADD148C,0.07496*%
G04 #@! TA.AperFunction,SMDPad,CuDef*
%ADD171R,0.05724X0.13598*%
%ADD172R,0.10843X0.13598*%
%ADD173R,0.12496X0.11984*%
%ADD174R,0.04150X0.04543*%
%ADD175R,0.04543X0.04150*%
%ADD176R,0.04937X0.03756*%
%ADD177R,0.10843X0.13992*%
%ADD178R,0.13992X0.10843*%
%ADD179R,0.04543X0.03756*%
%ADD180R,0.04543X0.07299*%
%ADD181R,0.04937X0.06906*%
%ADD182R,0.05724X0.07299*%
%ADD183R,0.13992X0.07299*%
G04 #@! TD.AperFunction*
X0Y0D02*
D02*
D26*
X357047Y88951D03*
X318859Y266904D03*
X261771Y280290D03*
X364528Y285014D03*
X325945D03*
D02*
D143*
X373976Y88951D03*
X337756Y92099D03*
X325551Y92495D03*
X370041Y97613D03*
X306654Y119660D03*
X353583Y123991D03*
X413583Y124384D03*
X403583D03*
X393583D03*
X383583D03*
X432638Y135014D03*
X310591Y192101D03*
Y206668D03*
X413583Y255093D03*
X403583D03*
X393583D03*
X383583D03*
X373583D03*
X314055D03*
X288543Y278715D03*
D02*
D144*
X248661Y74266D03*
X238661D03*
X248661Y84266D03*
X238661D03*
X248661Y94266D03*
X238661D03*
X248661Y104266D03*
X238661D03*
X248661Y114266D03*
X238661D03*
X248661Y124266D03*
X238661D03*
X248661Y134266D03*
X238661D03*
X248661Y144266D03*
X238661D03*
X248661Y154266D03*
X238661D03*
X248661Y164266D03*
X238661D03*
X248661Y174266D03*
X238661D03*
X248661Y184266D03*
X238661D03*
X248661Y194266D03*
X238661D03*
X248661Y204266D03*
X238661D03*
X248661Y214266D03*
X238661D03*
X248661Y224266D03*
X238661D03*
X248661Y234266D03*
X238661D03*
X260591Y241313D03*
X248661Y244266D03*
X238661D03*
X260591Y249187D03*
X248661Y254266D03*
X238661D03*
X260591Y257061D03*
X248661Y264266D03*
X238661D03*
X260591Y264936D03*
D02*
D145*
X436575Y55093D03*
X243661D03*
X436575Y283439D03*
X243661D03*
D02*
D146*
X399173Y74384D03*
X412173Y96384D03*
X386173D03*
D02*
D147*
X262165Y94857D03*
Y104857D03*
Y114857D03*
Y136983D03*
Y146983D03*
Y156983D03*
Y179109D03*
Y189109D03*
Y211392D03*
Y221392D03*
D02*
D148*
X289331Y59030D03*
X275945D03*
X286870Y65920D03*
X278406D03*
D02*
D171*
X423583Y111392D03*
X413583D03*
X403583D03*
X393583D03*
X383583D03*
X373583D03*
X363583D03*
X353583D03*
X343583D03*
X333583D03*
X423583Y268085D03*
X413583D03*
X403583D03*
X393583D03*
X383583D03*
X373583D03*
X333583D03*
D02*
D172*
X443268Y135014D03*
X314055Y244463D03*
D02*
D173*
X359193Y61392D03*
X318681D03*
D02*
D174*
X360197Y99975D03*
X353897D03*
X318859Y271235D03*
X312559D03*
X361378Y285014D03*
X355078D03*
X348780D03*
X342480D03*
X336181D03*
X329881D03*
X322008D03*
X315708D03*
X307835D03*
X301535D03*
X295237D03*
X288937D03*
X281063D03*
X274763D03*
X268465D03*
X262165D03*
D02*
D175*
X311772Y106667D03*
X304685D03*
X295630D03*
X288543D03*
X311772Y112967D03*
X304685D03*
X295630D03*
X288543D03*
X281063Y241313D03*
Y247613D03*
D02*
D176*
X378699Y85211D03*
X370041D03*
Y88951D03*
X378699Y92691D03*
X370041D03*
D02*
D177*
X345236Y92495D03*
X318465D03*
D02*
D178*
X297992Y165329D03*
Y192101D03*
Y206668D03*
Y233439D03*
D02*
D179*
X362362Y85211D03*
X354094D03*
Y88951D03*
X362362Y92691D03*
X354094D03*
D02*
D180*
X405275Y96432D03*
X393071D03*
D02*
D181*
X405472Y85014D03*
X392874D03*
D02*
D182*
X306654Y127731D03*
X297598D03*
X288543D03*
X306654Y271038D03*
X297598D03*
X288543D03*
D02*
D183*
X297598Y152731D03*
Y246038D03*
X0Y0D02*
M02*
