G04 GENERATED BY PULSONIX 11.0 GERBER.DLL 8468*
G04 #@! TF.GenerationSoftware,Pulsonix,Pulsonix,11.0.8468*
G04 #@! TF.CreationDate,2022-02-02T18:24:52+05:00*
G04 #@! TF.Part,Single*
%INCSPAM*%
%LNLAYER 2*%
%FSLAX35Y35*%
%LPD*%
%MOIN*%
G04 #@! TF.FileFunction,Copper,L2,Inr*
G04 #@! TF.FilePolarity,Positive*
G04 #@! TA.AperFunction,OtherCopper,Copper*
%ADD10C,0.01500*%
G04 #@! TA.AperFunction,ViaPad*
%ADD70C,0.02600X0.01000*%
G04 #@! TA.AperFunction,OtherCopper,Copper*
%ADD74C,0.01200*%
G04 #@! TA.AperFunction,ViaPad*
%ADD81C,0.04000X0.02800*%
G04 #@! TA.AperFunction,ComponentPad*
%ADD94C,0.10000X0.06700*%
%ADD133C,0.06299X0.03937*%
%ADD134C,0.24409X0.10827*%
%ADD135C,0.06299X0.03150*%
%ADD136C,0.08000X0.04300*%
%ADD137C,0.06496X0.04724*%
%ADD138C,0.09843X0.05906*%
%ADD139C,0.11811X0.07874*%
G04 #@! TD.AperFunction*
X0Y0D02*
D02*
D10*
X274515Y47663D02*
X424999D01*
G75*
G02*
X444004Y66669I11576J7430D01*
G01*
Y271864D01*
G75*
G02*
X425262Y291263I-7429J11576D01*
G01*
X254975D01*
G75*
G02*
X236232Y271864I-11313J-7823D01*
G01*
Y268289D01*
G75*
G02*
X238661Y268966I2430J-4022D01*
G01*
G75*
G02*
Y259567I0J-4699D01*
G01*
G75*
G02*
X236232Y260243I-1J4698D01*
G01*
Y258289D01*
G75*
G02*
X238661Y258966I2430J-4022D01*
G01*
G75*
G02*
Y249567I0J-4699D01*
G01*
G75*
G02*
X236232Y250243I-1J4698D01*
G01*
Y248289D01*
G75*
G02*
X238661Y248966I2430J-4022D01*
G01*
G75*
G02*
Y239567I0J-4699D01*
G01*
G75*
G02*
X236232Y240243I-1J4698D01*
G01*
Y238521D01*
G75*
G02*
X238661Y239166I2430J-4254D01*
G01*
G75*
G02*
Y229367I0J-4899D01*
G01*
G75*
G02*
X236232Y230011I-1J4898D01*
G01*
Y228289D01*
G75*
G02*
X238661Y228966I2430J-4022D01*
G01*
G75*
G02*
Y219567I0J-4699D01*
G01*
G75*
G02*
X236232Y220243I-1J4698D01*
G01*
Y218521D01*
G75*
G02*
X238661Y219166I2430J-4254D01*
G01*
G75*
G02*
Y209367I0J-4899D01*
G01*
G75*
G02*
X236232Y210011I-1J4898D01*
G01*
Y208289D01*
G75*
G02*
X238661Y208966I2430J-4022D01*
G01*
G75*
G02*
Y199567I0J-4699D01*
G01*
G75*
G02*
X236232Y200243I-1J4698D01*
G01*
Y198289D01*
G75*
G02*
X238661Y198966I2430J-4022D01*
G01*
G75*
G02*
Y189567I0J-4699D01*
G01*
G75*
G02*
X236232Y190243I-1J4698D01*
G01*
Y188289D01*
G75*
G02*
X238661Y188966I2430J-4022D01*
G01*
G75*
G02*
Y179567I0J-4699D01*
G01*
G75*
G02*
X236232Y180243I-1J4698D01*
G01*
Y178289D01*
G75*
G02*
X238661Y178966I2430J-4022D01*
G01*
G75*
G02*
Y169567I0J-4699D01*
G01*
G75*
G02*
X236232Y170243I-1J4698D01*
G01*
Y168521D01*
G75*
G02*
X238661Y169166I2430J-4254D01*
G01*
G75*
G02*
Y159367I0J-4899D01*
G01*
G75*
G02*
X236232Y160011I-1J4898D01*
G01*
Y158289D01*
G75*
G02*
X238661Y158966I2430J-4022D01*
G01*
G75*
G02*
Y149567I0J-4699D01*
G01*
G75*
G02*
X236232Y150243I-1J4698D01*
G01*
Y148289D01*
G75*
G02*
X238661Y148966I2430J-4022D01*
G01*
G75*
G02*
Y139567I0J-4699D01*
G01*
G75*
G02*
X236232Y140243I-1J4698D01*
G01*
Y138521D01*
G75*
G02*
X238661Y139166I2430J-4254D01*
G01*
G75*
G02*
Y129367I0J-4899D01*
G01*
G75*
G02*
X236232Y130011I-1J4898D01*
G01*
Y128289D01*
G75*
G02*
X238661Y128966I2430J-4022D01*
G01*
G75*
G02*
Y119567I0J-4699D01*
G01*
G75*
G02*
X236232Y120243I-1J4698D01*
G01*
Y118289D01*
G75*
G02*
X238661Y118966I2430J-4022D01*
G01*
G75*
G02*
Y109567I0J-4699D01*
G01*
G75*
G02*
X236232Y110243I-1J4698D01*
G01*
Y108289D01*
G75*
G02*
X238661Y108966I2430J-4022D01*
G01*
G75*
G02*
Y99567I0J-4699D01*
G01*
G75*
G02*
X236232Y100243I-1J4698D01*
G01*
Y98521D01*
G75*
G02*
X238661Y99166I2430J-4254D01*
G01*
G75*
G02*
Y89367I0J-4899D01*
G01*
G75*
G02*
X236232Y90011I-1J4898D01*
G01*
Y88289D01*
G75*
G02*
X238661Y88966I2430J-4022D01*
G01*
G75*
G02*
Y79567I0J-4699D01*
G01*
G75*
G02*
X236232Y80243I-1J4698D01*
G01*
Y78289D01*
G75*
G02*
X238661Y78966I2430J-4022D01*
G01*
G75*
G02*
Y69567I0J-4699D01*
G01*
G75*
G02*
X236232Y70243I-1J4698D01*
G01*
Y66669D01*
G75*
G02*
X255237Y47663I7429J-11576D01*
G01*
X265170D01*
G75*
G02*
X271179Y58472I4673J4477D01*
G01*
G75*
G02*
X274251Y63519I4765J558D01*
G01*
G75*
G02*
X278406Y70718I4155J2401D01*
G01*
G75*
G02*
X282638Y68180I0J-4798D01*
G01*
G75*
G02*
X291668Y65920I4232J-2260D01*
G01*
G75*
G02*
X291024Y63519I-4799J0D01*
G01*
G75*
G02*
X289331Y54232I-1693J-4489D01*
G01*
G75*
G02*
X285176Y61431I0J4798D01*
G01*
G75*
G02*
X282638Y63659I1693J4488D01*
G01*
G75*
G02*
X280099Y61431I-4231J2261D01*
G01*
G75*
G02*
X275966Y54232I-4155J-2401D01*
G01*
G75*
G02*
X274515Y47663I-6124J-2092D01*
G01*
X364528Y282164D02*
G75*
G02*
Y287864I0J2850D01*
G01*
G75*
G02*
Y282164I0J-2850D01*
G01*
X326339D02*
G75*
G02*
Y287864I0J2850D01*
G01*
G75*
G02*
Y282164I0J-2850D01*
G01*
X248661Y259367D02*
G75*
G02*
Y269166I0J4900D01*
G01*
G75*
G02*
Y259367I0J-4899D01*
G01*
Y249567D02*
G75*
G02*
Y258966I0J4700D01*
G01*
G75*
G02*
Y249567I0J-4699D01*
G01*
Y239567D02*
G75*
G02*
Y248966I0J4700D01*
G01*
G75*
G02*
Y239567I0J-4699D01*
G01*
Y229567D02*
G75*
G02*
Y238966I0J4700D01*
G01*
G75*
G02*
Y229567I0J-4699D01*
G01*
X257846Y260877D02*
G75*
G02*
X260591Y269835I2745J4059D01*
G01*
G75*
G02*
X263335Y260877I0J-4899D01*
G01*
G75*
G02*
X263157Y253124I-2745J-3816D01*
G01*
G75*
G02*
Y245250I-2566J-3937D01*
G01*
G75*
G02*
X260591Y236614I-2566J-3937D01*
G01*
G75*
G02*
X258024Y245250I0J4699D01*
G01*
G75*
G02*
Y253124I2566J3937D01*
G01*
G75*
G02*
X257846Y260877I2567J3937D01*
G01*
X413583Y251543D02*
G75*
G02*
Y258643I0J3550D01*
G01*
G75*
G02*
Y251543I0J-3550D01*
G01*
X403583D02*
G75*
G02*
Y258643I0J3550D01*
G01*
G75*
G02*
Y251543I0J-3550D01*
G01*
X393583D02*
G75*
G02*
Y258643I0J3550D01*
G01*
G75*
G02*
Y251543I0J-3550D01*
G01*
X248661Y219567D02*
G75*
G02*
Y228966I0J4700D01*
G01*
G75*
G02*
Y219567I0J-4699D01*
G01*
Y209567D02*
G75*
G02*
Y218966I0J4700D01*
G01*
G75*
G02*
Y209567I0J-4699D01*
G01*
Y199567D02*
G75*
G02*
Y208966I0J4700D01*
G01*
G75*
G02*
Y199567I0J-4699D01*
G01*
X310591Y203118D02*
G75*
G02*
Y210218I0J3550D01*
G01*
G75*
G02*
Y203118I0J-3550D01*
G01*
X259757Y216392D02*
G75*
G02*
X262165Y226942I2408J5000D01*
G01*
G75*
G02*
X264574Y216392I0J-5550D01*
G01*
G75*
G02*
X262165Y205842I-2409J-5000D01*
G01*
G75*
G02*
X259757Y216392I0J5550D01*
G01*
X248661Y189367D02*
G75*
G02*
Y199166I0J4900D01*
G01*
G75*
G02*
Y189367I0J-4899D01*
G01*
Y179567D02*
G75*
G02*
Y188966I0J4700D01*
G01*
G75*
G02*
Y179567I0J-4699D01*
G01*
Y169567D02*
G75*
G02*
Y178966I0J4700D01*
G01*
G75*
G02*
Y169567I0J-4699D01*
G01*
X259757Y184109D02*
G75*
G02*
X262165Y194659I2408J5000D01*
G01*
G75*
G02*
X264574Y184109I0J-5550D01*
G01*
G75*
G02*
X262165Y173559I-2409J-5000D01*
G01*
G75*
G02*
X259757Y184109I0J5550D01*
G01*
X310591Y188551D02*
G75*
G02*
Y195651I0J3550D01*
G01*
G75*
G02*
Y188551I0J-3550D01*
G01*
X248661Y159567D02*
G75*
G02*
Y168966I0J4700D01*
G01*
G75*
G02*
Y159567I0J-4699D01*
G01*
Y149567D02*
G75*
G02*
Y158966I0J4700D01*
G01*
G75*
G02*
Y149567I0J-4699D01*
G01*
Y139567D02*
G75*
G02*
Y148966I0J4700D01*
G01*
G75*
G02*
Y139567I0J-4699D01*
G01*
Y129567D02*
G75*
G02*
Y138966I0J4700D01*
G01*
G75*
G02*
Y129567I0J-4699D01*
G01*
X259535Y152096D02*
G75*
G02*
X262165Y162533I2630J4887D01*
G01*
G75*
G02*
X264796Y152096I0J-5550D01*
G01*
G75*
G02*
Y141870I-2631J-5113D01*
G01*
G75*
G02*
X262165Y131433I-2631J-4887D01*
G01*
G75*
G02*
X259535Y141870I0J5550D01*
G01*
G75*
G02*
Y152096I2631J5113D01*
G01*
X248661Y119567D02*
G75*
G02*
Y128966I0J4700D01*
G01*
G75*
G02*
Y119567I0J-4699D01*
G01*
X393583Y120834D02*
G75*
G02*
Y127934I0J3550D01*
G01*
G75*
G02*
Y120834I0J-3550D01*
G01*
X383583D02*
G75*
G02*
Y127934I0J3550D01*
G01*
G75*
G02*
Y120834I0J-3550D01*
G01*
X248661Y109367D02*
G75*
G02*
Y119166I0J4900D01*
G01*
G75*
G02*
Y109367I0J-4899D01*
G01*
Y99567D02*
G75*
G02*
Y108966I0J4700D01*
G01*
G75*
G02*
Y99567I0J-4699D01*
G01*
Y89567D02*
G75*
G02*
Y98966I0J4700D01*
G01*
G75*
G02*
Y89567I0J-4699D01*
G01*
X259535Y109970D02*
G75*
G02*
X262165Y120407I2630J4887D01*
G01*
G75*
G02*
X264796Y109970I0J-5550D01*
G01*
G75*
G02*
Y99744I-2631J-5113D01*
G01*
G75*
G02*
X262165Y89307I-2631J-4887D01*
G01*
G75*
G02*
X259535Y99744I0J5550D01*
G01*
G75*
G02*
Y109970I2631J5113D01*
G01*
X248661Y79567D02*
G75*
G02*
Y88966I0J4700D01*
G01*
G75*
G02*
Y79567I0J-4699D01*
G01*
X337756Y88549D02*
G75*
G02*
Y95649I0J3550D01*
G01*
G75*
G02*
Y88549I0J-3550D01*
G01*
X405423Y96384D02*
G75*
G02*
X412173Y103134I6750J0D01*
G01*
G75*
G02*
X418923Y96384I0J-6750D01*
G01*
G75*
G02*
X412173Y89634I-6750J0D01*
G01*
G75*
G02*
X405423Y96384I0J6750D01*
G01*
X386173Y102934D02*
G75*
G02*
X392723Y96384I0J-6550D01*
G01*
G75*
G02*
X386173Y89834I-6550J0D01*
G01*
G75*
G02*
X379623Y96384I0J6550D01*
G01*
G75*
G02*
X386173Y102934I6550J0D01*
G01*
X370041Y94063D02*
G75*
G02*
Y101163I0J3550D01*
G01*
G75*
G02*
Y94063I0J-3550D01*
G01*
X325551Y88945D02*
G75*
G02*
Y96045I0J3550D01*
G01*
G75*
G02*
Y88945I0J-3550D01*
G01*
X248661Y69567D02*
G75*
G02*
Y78966I0J4700D01*
G01*
G75*
G02*
Y69567I0J-4699D01*
G01*
X255497Y64936D02*
G75*
G02*
X262953Y72391I7456J0D01*
G01*
G75*
G02*
X270408Y64936I0J-7455D01*
G01*
G75*
G02*
X262953Y57480I-7455J0D01*
G01*
G75*
G02*
X255497Y64936I0J7456D01*
G01*
X288962Y77731D02*
G75*
G02*
X295433Y84202I6471J0D01*
G01*
G75*
G02*
X301904Y77731I0J-6471D01*
G01*
G75*
G02*
X295433Y71260I-6471J0D01*
G01*
G75*
G02*
X288962Y77731I0J6471D01*
G01*
X294867Y64936D02*
G75*
G02*
X302323Y72391I7456J0D01*
G01*
G75*
G02*
X309778Y64936I0J-7455D01*
G01*
G75*
G02*
X302323Y57480I-7455J0D01*
G01*
G75*
G02*
X294867Y64936I0J7456D01*
G01*
X392423Y74384D02*
G75*
G02*
X399173Y81134I6750J0D01*
G01*
G75*
G02*
X405923Y74384I0J-6750D01*
G01*
G75*
G02*
X399173Y67634I-6750J0D01*
G01*
G75*
G02*
X392423Y74384I0J6750D01*
G01*
X413583Y47663D02*
G36*
X413583Y47663D02*
X424999D01*
G75*
G02*
X436575Y68848I11576J7430D01*
G01*
G75*
G02*
X444004Y66669I0J-13754D01*
G01*
Y271864D01*
G75*
G02*
X436575Y269685I-7429J11575D01*
G01*
G75*
G02*
X425262Y291263I0J13755D01*
G01*
X413583D01*
Y258643D01*
G75*
G02*
Y251543I0J-3550D01*
G01*
Y102986D01*
G75*
G02*
X418923Y96384I-1410J-6601D01*
G01*
G75*
G02*
X413583Y89783I-6750J0D01*
G01*
Y47663D01*
G37*
X403583D02*
G36*
X403583Y47663D02*
X413583D01*
Y89783D01*
G75*
G02*
X412173Y89634I-1411J6604D01*
G01*
G75*
G02*
X405423Y96384I0J6750D01*
G01*
G75*
G02*
X412173Y103134I6750J0D01*
G01*
G75*
G02*
X413583Y102986I4J-6752D01*
G01*
Y251543D01*
G75*
G02*
Y258643I0J3550D01*
G01*
Y291263D01*
X403583D01*
Y258643D01*
G75*
G02*
Y251543I0J-3550D01*
G01*
Y79495D01*
G75*
G02*
X405923Y74384I-4410J-5110D01*
G01*
G75*
G02*
X403583Y69274I-6749J0D01*
G01*
Y47663D01*
G37*
X393583D02*
G36*
X393583Y47663D02*
X403583D01*
Y69274D01*
G75*
G02*
X399173Y67634I-4411J5111D01*
G01*
G75*
G02*
X393583Y70602I1J6750D01*
G01*
Y47663D01*
G37*
X399173Y81134D02*
G36*
X399173Y81134D02*
G75*
G02*
X403583Y79495I1J-6751D01*
G01*
Y251543D01*
G75*
G02*
Y258643I0J3550D01*
G01*
Y291263D01*
X393583D01*
Y258643D01*
G75*
G02*
Y251543I0J-3550D01*
G01*
Y127934D01*
G75*
G02*
Y120834I0J-3550D01*
G01*
Y78167D01*
G75*
G02*
X399173Y81134I5590J-3782D01*
G01*
G37*
X383583Y47663D02*
G36*
X383583Y47663D02*
X393583D01*
Y70602D01*
G75*
G02*
X392423Y74384I5589J3783D01*
G01*
G75*
G02*
X393583Y78167I6751J-1D01*
G01*
Y120834D01*
G75*
G02*
Y127934I0J3550D01*
G01*
Y251543D01*
G75*
G02*
Y258643I0J3550D01*
G01*
Y291263D01*
X383583D01*
Y127934D01*
G75*
G02*
Y120834I0J-3550D01*
G01*
Y102400D01*
G75*
G02*
X386173Y102934I2590J-6015D01*
G01*
G75*
G02*
X392723Y96384I0J-6550D01*
G01*
G75*
G02*
X386173Y89834I-6550J0D01*
G01*
G75*
G02*
X383583Y90368I0J6549D01*
G01*
Y47663D01*
G37*
X370041D02*
G36*
X370041Y47663D02*
X383583D01*
Y90368D01*
G75*
G02*
X379623Y96384I2590J6016D01*
G01*
G75*
G02*
X383583Y102400I6550J0D01*
G01*
Y120834D01*
G75*
G02*
Y127934I0J3550D01*
G01*
Y291263D01*
X370041D01*
Y101163D01*
G75*
G02*
Y94063I0J-3550D01*
G01*
Y47663D01*
G37*
X364528D02*
G36*
X364528Y47663D02*
X370041D01*
Y94063D01*
G75*
G02*
Y101163I0J3550D01*
G01*
Y291263D01*
X364528D01*
Y287864D01*
G75*
G02*
Y282164I0J-2850D01*
G01*
Y47663D01*
G37*
X337756D02*
G36*
X337756Y47663D02*
X364528D01*
Y282164D01*
G75*
G02*
Y287864I0J2850D01*
G01*
Y291263D01*
X337756D01*
Y95649D01*
G75*
G02*
Y88549I0J-3550D01*
G01*
Y47663D01*
G37*
X326339D02*
G36*
X326339Y47663D02*
X337756D01*
Y88549D01*
G75*
G02*
Y95649I0J3550D01*
G01*
Y291263D01*
X326339D01*
Y287864D01*
G75*
G02*
Y282164I0J-2850D01*
G01*
Y95956D01*
G75*
G02*
Y89033I-787J-3461D01*
G01*
Y47663D01*
G37*
X310591D02*
G36*
X310591Y47663D02*
X326339D01*
Y89033D01*
G75*
G02*
X325551Y88945I-786J3464D01*
G01*
G75*
G02*
Y96045I0J3550D01*
G01*
G75*
G02*
X326339Y95956I-2J-3553D01*
G01*
Y282164D01*
G75*
G02*
Y287864I0J2850D01*
G01*
Y291263D01*
X310591D01*
Y210218D01*
G75*
G02*
Y203118I0J-3550D01*
G01*
Y195651D01*
G75*
G02*
Y188551I0J-3550D01*
G01*
Y47663D01*
G37*
X295433D02*
G36*
X295433Y47663D02*
X310591D01*
Y188551D01*
G75*
G02*
Y195651I0J3550D01*
G01*
Y203118D01*
G75*
G02*
Y210218I0J3550D01*
G01*
Y291263D01*
X295433D01*
Y84202D01*
G75*
G02*
X301904Y77731I0J-6471D01*
G01*
G75*
G02*
X295433Y71260I-6471J0D01*
G01*
Y67784D01*
G75*
G02*
X302323Y72391I6890J-2849D01*
G01*
G75*
G02*
X309778Y64936I0J-7455D01*
G01*
G75*
G02*
X302323Y57480I-7455J0D01*
G01*
G75*
G02*
X295433Y62087I0J7456D01*
G01*
Y47663D01*
G37*
X274515D02*
G36*
X274515Y47663D02*
X295433D01*
Y62087D01*
G75*
G02*
X294867Y64936I6890J2850D01*
G01*
G75*
G02*
X295433Y67784I7454J-1D01*
G01*
Y71260D01*
G75*
G02*
X288962Y77731I0J6471D01*
G01*
G75*
G02*
X295433Y84202I6471J0D01*
G01*
Y291263D01*
X260591D01*
Y269835D01*
G75*
G02*
X263335Y260877I0J-4899D01*
G01*
G75*
G02*
X263157Y253124I-2745J-3816D01*
G01*
G75*
G02*
Y245250I-2566J-3937D01*
G01*
G75*
G02*
X260591Y236614I-2566J-3937D01*
G01*
Y226714D01*
G75*
G02*
X262165Y226942I1574J-5319D01*
G01*
G75*
G02*
X264574Y216392I0J-5550D01*
G01*
G75*
G02*
X262165Y205842I-2409J-5000D01*
G01*
G75*
G02*
X260591Y206070I0J5547D01*
G01*
Y194431D01*
G75*
G02*
X262165Y194659I1574J-5319D01*
G01*
G75*
G02*
X264574Y184109I0J-5550D01*
G01*
G75*
G02*
X262165Y173559I-2409J-5000D01*
G01*
G75*
G02*
X260591Y173787I0J5547D01*
G01*
Y162305D01*
G75*
G02*
X262165Y162533I1574J-5319D01*
G01*
G75*
G02*
X264796Y152096I0J-5550D01*
G01*
G75*
G02*
Y141870I-2631J-5113D01*
G01*
G75*
G02*
X262165Y131433I-2631J-4887D01*
G01*
G75*
G02*
X260591Y131661I0J5547D01*
G01*
Y120179D01*
G75*
G02*
X262165Y120407I1574J-5319D01*
G01*
G75*
G02*
X264796Y109970I0J-5550D01*
G01*
G75*
G02*
Y99744I-2631J-5113D01*
G01*
G75*
G02*
X262165Y89307I-2631J-4887D01*
G01*
G75*
G02*
X260591Y89535I0J5547D01*
G01*
Y72007D01*
G75*
G02*
X262953Y72391I2362J-7071D01*
G01*
G75*
G02*
X270408Y64936I0J-7455D01*
G01*
G75*
G02*
X262953Y57480I-7455J0D01*
G01*
G75*
G02*
X260591Y57864I0J7455D01*
G01*
Y47663D01*
X265170D01*
G75*
G02*
X269843Y58611I4673J4477D01*
G01*
G75*
G02*
X271179Y58472I2J-6467D01*
G01*
G75*
G02*
X274251Y63519I4765J558D01*
G01*
G75*
G02*
X278406Y70718I4155J2401D01*
G01*
G75*
G02*
X282638Y68180I0J-4798D01*
G01*
G75*
G02*
X286870Y70718I4232J-2260D01*
G01*
G75*
G02*
X291668Y65920I0J-4798D01*
G01*
G75*
G02*
X291024Y63519I-4799J0D01*
G01*
G75*
G02*
X289331Y54232I-1693J-4489D01*
G01*
G75*
G02*
X285176Y61431I0J4798D01*
G01*
G75*
G02*
X282638Y63659I1693J4488D01*
G01*
G75*
G02*
X280099Y61431I-4231J2261D01*
G01*
G75*
G02*
X275966Y54232I-4155J-2401D01*
G01*
G75*
G02*
X274515Y47663I-6124J-2092D01*
G01*
G37*
X255237D02*
G36*
X255237Y47663D02*
X260591D01*
Y57864D01*
G75*
G02*
X255497Y64936I2362J7072D01*
G01*
G75*
G02*
X260591Y72007I7456J-1D01*
G01*
Y89535D01*
G75*
G02*
X259535Y99744I1575J5322D01*
G01*
G75*
G02*
Y109970I2631J5113D01*
G01*
G75*
G02*
X260591Y120179I2631J4887D01*
G01*
Y131661D01*
G75*
G02*
X259535Y141870I1575J5322D01*
G01*
G75*
G02*
Y152096I2631J5113D01*
G01*
G75*
G02*
X260591Y162305I2631J4887D01*
G01*
Y173787D01*
G75*
G02*
X259757Y184109I1575J5322D01*
G01*
G75*
G02*
X260591Y194431I2409J5000D01*
G01*
Y206070D01*
G75*
G02*
X259757Y216392I1575J5322D01*
G01*
G75*
G02*
X260591Y226714I2409J5000D01*
G01*
Y236614D01*
G75*
G02*
X258024Y245250I0J4699D01*
G01*
G75*
G02*
Y253124I2566J3937D01*
G01*
G75*
G02*
X257846Y260877I2567J3937D01*
G01*
G75*
G02*
X260591Y269835I2745J4059D01*
G01*
Y291263D01*
X254975D01*
G75*
G02*
X248661Y270626I-11314J-7823D01*
G01*
Y269166D01*
G75*
G02*
Y259367I0J-4899D01*
G01*
Y258966D01*
G75*
G02*
Y249567I0J-4699D01*
G01*
Y248966D01*
G75*
G02*
Y239567I0J-4699D01*
G01*
Y238966D01*
G75*
G02*
Y229567I0J-4699D01*
G01*
Y228966D01*
G75*
G02*
Y219567I0J-4699D01*
G01*
Y218966D01*
G75*
G02*
Y209567I0J-4699D01*
G01*
Y208966D01*
G75*
G02*
Y199567I0J-4699D01*
G01*
Y199166D01*
G75*
G02*
Y189367I0J-4899D01*
G01*
Y188966D01*
G75*
G02*
Y179567I0J-4699D01*
G01*
Y178966D01*
G75*
G02*
Y169567I0J-4699D01*
G01*
Y168966D01*
G75*
G02*
Y159567I0J-4699D01*
G01*
Y158966D01*
G75*
G02*
Y149567I0J-4699D01*
G01*
Y148966D01*
G75*
G02*
Y139567I0J-4699D01*
G01*
Y138966D01*
G75*
G02*
Y129567I0J-4699D01*
G01*
Y128966D01*
G75*
G02*
Y119567I0J-4699D01*
G01*
Y119166D01*
G75*
G02*
Y109367I0J-4899D01*
G01*
Y108966D01*
G75*
G02*
Y99567I0J-4699D01*
G01*
Y98966D01*
G75*
G02*
Y89567I0J-4699D01*
G01*
Y88966D01*
G75*
G02*
Y79567I0J-4699D01*
G01*
Y78966D01*
G75*
G02*
Y69567I0J-4699D01*
G01*
Y67907D01*
G75*
G02*
X255237Y47663I-5000J-12814D01*
G01*
G37*
X243661Y68848D02*
G36*
X243661Y68848D02*
G75*
G02*
X248661Y67907I0J-13755D01*
G01*
Y69567D01*
G75*
G02*
Y78966I0J4700D01*
G01*
Y79567D01*
G75*
G02*
Y88966I0J4700D01*
G01*
Y89567D01*
G75*
G02*
Y98966I0J4700D01*
G01*
Y99567D01*
G75*
G02*
Y108966I0J4700D01*
G01*
Y109367D01*
G75*
G02*
Y119166I0J4900D01*
G01*
Y119567D01*
G75*
G02*
Y128966I0J4700D01*
G01*
Y129567D01*
G75*
G02*
Y138966I0J4700D01*
G01*
Y139567D01*
G75*
G02*
Y148966I0J4700D01*
G01*
Y149567D01*
G75*
G02*
Y158966I0J4700D01*
G01*
Y159567D01*
G75*
G02*
Y168966I0J4700D01*
G01*
Y169567D01*
G75*
G02*
Y178966I0J4700D01*
G01*
Y179567D01*
G75*
G02*
Y188966I0J4700D01*
G01*
Y189367D01*
G75*
G02*
Y199166I0J4900D01*
G01*
Y199567D01*
G75*
G02*
Y208966I0J4700D01*
G01*
Y209567D01*
G75*
G02*
Y218966I0J4700D01*
G01*
Y219567D01*
G75*
G02*
Y228966I0J4700D01*
G01*
Y229567D01*
G75*
G02*
Y238966I0J4700D01*
G01*
Y239567D01*
G75*
G02*
Y248966I0J4700D01*
G01*
Y249567D01*
G75*
G02*
Y258966I0J4700D01*
G01*
Y259367D01*
G75*
G02*
Y269166I0J4900D01*
G01*
Y270626D01*
G75*
G02*
X243661Y269685I-5000J12814D01*
G01*
G75*
G02*
X236232Y271864I0J13754D01*
G01*
Y268289D01*
G75*
G02*
X238661Y268966I2430J-4022D01*
G01*
X238661D01*
G75*
G02*
Y259567I0J-4699D01*
G01*
X238661D01*
G75*
G02*
X236232Y260243I-1J4698D01*
G01*
Y258289D01*
G75*
G02*
X238661Y258966I2430J-4022D01*
G01*
X238661D01*
G75*
G02*
Y249567I0J-4699D01*
G01*
X238661D01*
G75*
G02*
X236232Y250243I-1J4698D01*
G01*
Y248289D01*
G75*
G02*
X238661Y248966I2430J-4022D01*
G01*
X238661D01*
G75*
G02*
Y239567I0J-4699D01*
G01*
X238661D01*
G75*
G02*
X236232Y240243I-1J4698D01*
G01*
Y238521D01*
G75*
G02*
X238661Y239166I2430J-4254D01*
G01*
X238661D01*
G75*
G02*
Y229367I0J-4899D01*
G01*
X238661D01*
G75*
G02*
X236232Y230011I-1J4898D01*
G01*
Y228289D01*
G75*
G02*
X238661Y228966I2430J-4022D01*
G01*
X238661D01*
G75*
G02*
Y219567I0J-4699D01*
G01*
X238661D01*
G75*
G02*
X236232Y220243I-1J4698D01*
G01*
Y218521D01*
G75*
G02*
X238661Y219166I2430J-4254D01*
G01*
X238661D01*
G75*
G02*
Y209367I0J-4899D01*
G01*
X238661D01*
G75*
G02*
X236232Y210011I-1J4898D01*
G01*
Y208289D01*
G75*
G02*
X238661Y208966I2430J-4022D01*
G01*
X238661D01*
G75*
G02*
Y199567I0J-4699D01*
G01*
X238661D01*
G75*
G02*
X236232Y200243I-1J4698D01*
G01*
Y198289D01*
G75*
G02*
X238661Y198966I2430J-4022D01*
G01*
X238661D01*
G75*
G02*
Y189567I0J-4699D01*
G01*
X238661D01*
G75*
G02*
X236232Y190243I-1J4698D01*
G01*
Y188289D01*
G75*
G02*
X238661Y188966I2430J-4022D01*
G01*
X238661D01*
G75*
G02*
Y179567I0J-4699D01*
G01*
X238661D01*
G75*
G02*
X236232Y180243I-1J4698D01*
G01*
Y178289D01*
G75*
G02*
X238661Y178966I2430J-4022D01*
G01*
X238661D01*
G75*
G02*
Y169567I0J-4699D01*
G01*
X238661D01*
G75*
G02*
X236232Y170243I-1J4698D01*
G01*
Y168521D01*
G75*
G02*
X238661Y169166I2430J-4254D01*
G01*
X238661D01*
G75*
G02*
Y159367I0J-4899D01*
G01*
X238661D01*
G75*
G02*
X236232Y160011I-1J4898D01*
G01*
Y158289D01*
G75*
G02*
X238661Y158966I2430J-4022D01*
G01*
X238661D01*
G75*
G02*
Y149567I0J-4699D01*
G01*
X238661D01*
G75*
G02*
X236232Y150243I-1J4698D01*
G01*
Y148289D01*
G75*
G02*
X238661Y148966I2430J-4022D01*
G01*
X238661D01*
G75*
G02*
Y139567I0J-4699D01*
G01*
X238661D01*
G75*
G02*
X236232Y140243I-1J4698D01*
G01*
Y138521D01*
G75*
G02*
X238661Y139166I2430J-4254D01*
G01*
X238661D01*
G75*
G02*
Y129367I0J-4899D01*
G01*
X238661D01*
G75*
G02*
X236232Y130011I-1J4898D01*
G01*
Y128289D01*
G75*
G02*
X238661Y128966I2430J-4022D01*
G01*
X238661D01*
G75*
G02*
Y119567I0J-4699D01*
G01*
X238661D01*
G75*
G02*
X236232Y120243I-1J4698D01*
G01*
Y118289D01*
G75*
G02*
X238661Y118966I2430J-4022D01*
G01*
X238661D01*
G75*
G02*
Y109567I0J-4699D01*
G01*
X238661D01*
G75*
G02*
X236232Y110243I-1J4698D01*
G01*
Y108289D01*
G75*
G02*
X238661Y108966I2430J-4022D01*
G01*
X238661D01*
G75*
G02*
Y99567I0J-4699D01*
G01*
X238661D01*
G75*
G02*
X236232Y100243I-1J4698D01*
G01*
Y98521D01*
G75*
G02*
X238661Y99166I2430J-4254D01*
G01*
X238661D01*
G75*
G02*
Y89367I0J-4899D01*
G01*
X238661D01*
G75*
G02*
X236232Y90011I-1J4898D01*
G01*
Y88289D01*
G75*
G02*
X238661Y88966I2430J-4022D01*
G01*
X238661D01*
G75*
G02*
Y79567I0J-4699D01*
G01*
X238661D01*
G75*
G02*
X236232Y80243I-1J4698D01*
G01*
Y78289D01*
G75*
G02*
X238661Y78966I2430J-4022D01*
G01*
X238661D01*
G75*
G02*
Y69567I0J-4699D01*
G01*
X238661D01*
G75*
G02*
X236232Y70243I-1J4698D01*
G01*
Y66669D01*
G75*
G02*
X243661Y68848I7429J-11575D01*
G01*
G37*
D02*
D70*
X357047Y88951D03*
X318859Y266904D03*
X261771Y280290D03*
X364528Y285014D03*
X325945D03*
D02*
D74*
X399173Y69420D02*
Y67634D01*
X404137Y74384D02*
X405923D01*
X394209D02*
X392423D01*
X399173Y79348D02*
Y81134D01*
X238661Y91174D02*
Y89367D01*
X412173Y91420D02*
Y89634D01*
X241753Y94266D02*
X243561D01*
X417137Y96384D02*
X418923D01*
X407209D02*
X405423D01*
X238661Y97358D02*
Y99166D01*
X412173Y101348D02*
Y103134D01*
X266120Y104857D02*
X267915D01*
X258211D02*
X256415D01*
X248661Y111174D02*
Y109367D01*
X251753Y114266D02*
X253561D01*
X245569D02*
X243762D01*
X248661Y117358D02*
Y119166D01*
X238661Y131174D02*
Y129367D01*
X241753Y134266D02*
X243561D01*
X238661Y137358D02*
Y139166D01*
X266120Y146983D02*
X267915D01*
X258211D02*
X256415D01*
X238661Y161174D02*
Y159367D01*
X241753Y164266D02*
X243561D01*
X238661Y167358D02*
Y169166D01*
X248661Y191174D02*
Y189367D01*
X251753Y194266D02*
X253561D01*
X245569D02*
X243762D01*
X248661Y197358D02*
Y199166D01*
X238661Y211174D02*
Y209367D01*
X241753Y214266D02*
X243561D01*
X238661Y217358D02*
Y219166D01*
Y231174D02*
Y229367D01*
X241753Y234266D02*
X243561D01*
X238661Y237358D02*
Y239166D01*
X248661Y261174D02*
Y259367D01*
X251753Y264266D02*
X253561D01*
X245569D02*
X243762D01*
X263682Y264936D02*
X265490D01*
X257499D02*
X255691D01*
X248661Y267358D02*
Y269166D01*
X260591Y268027D02*
Y269835D01*
D02*
D81*
X373976Y88951D03*
X337756Y92099D03*
X325551Y92495D03*
X370041Y97613D03*
X306654Y119660D03*
X353583Y123991D03*
X413583Y124384D03*
X403583D03*
X393583D03*
X383583D03*
X432638Y135014D03*
X310591Y192101D03*
Y206668D03*
X413583Y255093D03*
X403583D03*
X393583D03*
X383583D03*
X373583D03*
X314055D03*
X288543Y278715D03*
D02*
D94*
X399173Y74384D03*
X412173Y96384D03*
X386173D03*
D02*
D133*
X248661Y74266D03*
X238661D03*
X248661Y84266D03*
X238661D03*
X248661Y94266D03*
X238661D03*
X248661Y104266D03*
X238661D03*
X248661Y114266D03*
X238661D03*
X248661Y124266D03*
X238661D03*
X248661Y134266D03*
X238661D03*
X248661Y144266D03*
X238661D03*
X248661Y154266D03*
X238661D03*
X248661Y164266D03*
X238661D03*
X248661Y174266D03*
X238661D03*
X248661Y184266D03*
X238661D03*
X248661Y194266D03*
X238661D03*
X248661Y204266D03*
X238661D03*
X248661Y214266D03*
X238661D03*
X248661Y224266D03*
X238661D03*
X248661Y234266D03*
X238661D03*
X248661Y244266D03*
X238661D03*
X248661Y254266D03*
X238661D03*
X248661Y264266D03*
X238661D03*
D02*
D134*
X436575Y55093D03*
X243661D03*
X436575Y283439D03*
X243661D03*
D02*
D135*
X260591Y241313D03*
Y249187D03*
Y257061D03*
Y264936D03*
D02*
D136*
X262165Y94857D03*
Y104857D03*
Y114857D03*
Y136983D03*
Y146983D03*
Y156983D03*
Y179109D03*
Y189109D03*
Y211392D03*
Y221392D03*
D02*
D137*
X289331Y59030D03*
X275945D03*
X286870Y65920D03*
X278406D03*
D02*
D138*
X269843Y52140D03*
X295433Y77731D03*
D02*
D139*
X302323Y64936D03*
X262953D03*
X0Y0D02*
M02*
